<svg width="24.000000" height="24.000000" viewBox="0 0 24 24" fill="none" xmlns="http://www.w3.org/2000/svg" xmlns:xlink="http://www.w3.org/1999/xlink">
	<desc>
			Created with Pixso.
	</desc>
	<defs>
		<clipPath id="clip2_9">
			<rect id="24" width="24.000000" height="24.000000" fill="white" fill-opacity="0"/>
		</clipPath>
	</defs>
	<rect id="24" width="24.000000" height="24.000000" fill="#3178C6" fill-opacity="1.000000"/>
	<g clip-path="url(#clip2_9)">
		<path id="G" d="M17.36 15.1L17.36 16.54L20.15 16.54L20.15 19.71Q20.06 19.81 19.96 19.89Q19.02 20.72 17.36 20.72Q16.13 20.72 15.15 20.22Q15 20.14 14.86 20.05Q14.53 19.85 14.24 19.59Q13.59 19.01 13.18 18.17Q12.59 16.95 12.59 15.37Q12.59 13.8 13.15 12.61Q13.6 11.67 14.32 11.06Q14.52 10.89 14.74 10.75Q15.02 10.56 15.32 10.43Q16.12 10.08 17.07 10.08Q18.22 10.08 19.08 10.57Q19.75 10.96 20.16 11.53Q20.28 11.7 20.38 11.88L21.68 11.12Q21.48 10.7 21.19 10.34Q20.68 9.7 19.9 9.27Q19.81 9.22 19.72 9.18Q18.57 8.6 17.14 8.6Q16 8.6 14.99 8.97Q14.46 9.17 13.96 9.46Q13.48 9.75 13.07 10.11Q12.26 10.83 11.71 11.85Q10.9 13.39 10.9 15.37Q10.9 17.37 11.71 18.93Q12.25 19.95 13.06 20.66Q13.48 21.04 13.98 21.34Q14.3 21.53 14.64 21.68Q15.83 22.19 17.25 22.19Q18.76 22.19 19.97 21.63Q21.17 21.08 21.75 20.23L21.75 15.1L17.36 15.1Z" fill="#FFFFFF" fill-opacity="1.000000" fill-rule="evenodd"/>
	</g>
</svg>
